<svg width="1179" height="881" viewBox="0 0 1179 881" fill="none" xmlns="http://www.w3.org/2000/svg">
<g filter="url(#filter0_d)">
<path d="M545.104 722.83C509.933 743.162 473.065 756.385 431.087 756.212C384.298 756.015 337.915 724.62 308.603 690.164C297.712 677.367 288.188 662.576 285.98 645.921C280.894 607.443 316.105 596.498 347.809 596.986C365.679 597.253 382.962 602.205 400.052 607.115C428.425 615.276 460.066 616.004 486.685 629.677C495.62 634.282 502.837 640.469 512.731 643.189C528.123 647.425 544.84 647.671 560.499 651.22C573.875 654.277 589.35 660.518 591.872 673.998C594.443 687.826 581.653 699.318 569.999 707.177C561.754 712.766 553.485 718.002 545.104 722.83Z" fill="url(#paint0_linear)"/>
<path d="M296.8 267.685C337.798 157.432 461.155 86.9824 577.386 96.193C633.435 100.643 685.635 125.71 734.793 152.964C778.122 176.983 821.026 203.828 855.439 239.921C878.934 264.556 899.142 296.034 915.325 326.078C939.538 371.069 943.394 435.735 880.184 446.409C865.354 448.915 851.466 446.763 836.717 445.517C824.784 444.5 814.529 449.375 802.64 450.363C772.718 452.856 742.371 449.047 713.089 443.053C653.407 430.811 596.113 408.354 535.679 399.62C486.158 392.486 435.73 394.892 387.114 406.707C366.604 411.695 345.399 418.409 324.815 413.734C274.076 402.189 279.467 336.23 287.946 297.792C290.181 287.559 293.14 277.498 296.8 267.685Z" fill="url(#paint1_linear)"/>
<path d="M796.509 161.678C808.569 168.201 853.33 183.109 847.062 154.285C845.491 147.106 840.558 140.971 834.873 136.824C828.365 132.06 821.882 130.313 816.235 124.29C809.354 117.032 801.931 110.445 794.063 104.613C777.912 92.4207 759.963 81.8962 740.832 79.9338C727.415 78.5628 706.791 84.785 704.803 102.037C701.901 127.153 739.452 122.428 752.644 128.092C765.158 133.445 774.486 145.626 785.515 154.421C788.998 157.193 792.679 159.622 796.509 161.678Z" fill="url(#paint2_linear)"/>
<path d="M592.693 174.827C618.29 182.519 639.899 198.123 664.184 209.005C704.615 227.119 752.483 221.127 795.926 229.97C840.226 238.999 877.347 260.8 901.191 299.486C931.983 349.417 949.44 413.489 948.213 472.875C946.855 538.245 918.357 588.427 868.751 629.388C819.174 670.324 759.988 698.257 698.502 716.088C692.57 717.814 686.619 719.418 680.619 720.928C545.845 754.768 354.563 751.26 273.103 617.527C272.357 616.305 271.629 615.08 270.895 613.835C262.204 598.842 255.339 582.862 250.447 566.236C232.958 507.333 227.276 438.982 234.489 377.98C239.331 336.915 264.321 304.897 290.665 274.419C327.678 231.601 377.853 202.876 431.337 185.727C470.943 173.03 516.012 160.896 557.895 166.977C569.674 168.721 581.306 171.344 592.693 174.827Z" fill="url(#paint3_linear)"/>
<path d="M906.258 591.85C882.601 624.875 854.466 652.125 816.152 669.277C773.445 688.391 718.243 678.915 677.331 659.612C662.132 652.444 647.356 642.897 638.477 628.634C617.977 595.677 645.541 571.187 674.626 558.558C691.016 551.432 708.803 548.817 726.397 546.244C755.612 541.978 784.737 529.595 814.625 531.075C824.665 531.586 833.79 534.246 843.926 532.644C859.695 530.157 875.026 523.487 890.756 520.263C904.202 517.533 920.873 516.837 928.73 528.078C936.774 539.615 929.86 555.359 922.484 567.324C917.278 575.815 911.903 583.995 906.258 591.85Z" fill="url(#paint4_linear)"/>
<path d="M510.432 412.302C510.091 412.302 509.748 412.194 509.455 411.968C509.188 411.758 502.859 406.759 498.026 396.562C493.594 387.211 489.658 371.534 496.066 349.921C500.412 335.259 504.768 324.836 508.609 315.634C515.583 298.94 520.623 286.878 521.03 261.306C521.043 260.431 521.689 259.68 522.643 259.741C523.525 259.757 524.225 260.476 524.212 261.357C523.795 287.54 518.389 300.48 511.545 316.863C507.734 325.988 503.416 336.328 499.117 350.828C487.431 390.23 511.17 409.27 511.412 409.454C512.102 409.995 512.226 410.994 511.689 411.688C511.374 412.092 510.906 412.302 510.432 412.302Z" fill="#000C3E"/>
<path d="M640.799 161.035C640.561 178.369 626.316 192.232 608.979 191.994C591.645 191.755 577.785 177.51 578.021 160.173C578.259 142.839 592.507 128.979 609.841 129.215C627.175 129.454 641.038 143.701 640.799 161.035Z" fill="#000C3E"/>
<path d="M507.394 401.089C507.394 401.089 517.051 419.858 554.808 425.645C592.563 431.43 621.749 417.125 651.024 426.963C680.299 436.804 721.907 422.091 729.928 409.699C737.952 397.306 733.001 262.282 709.577 240.179C686.153 218.075 565.792 202.02 540.433 229.138C515.075 256.259 490.55 386.268 507.394 401.089Z" fill="#000C3E"/>
<path d="M721.938 289.38C721.155 346.508 674.209 392.185 617.078 391.402C559.95 390.62 514.273 343.67 515.055 286.542C515.841 229.414 562.788 183.737 619.916 184.52C677.044 185.306 722.721 232.252 721.938 289.38Z" fill="#000C3E"/>
<path d="M533.966 286.087C533.966 286.087 541.198 411.52 626.201 414.925C711.201 418.329 706.915 241.46 675.801 225.363C644.687 209.27 516.587 215.471 533.966 286.087Z" fill="#FFCEB0"/>
<path d="M621.744 310.891C621.744 310.891 638.871 349.145 634.761 351.805C630.65 354.462 618.432 354.296 615.075 351.534C611.719 348.773 615.012 306.726 621.744 310.891Z" fill="#F5A473"/>
<path d="M596.633 324.426C596.522 328.83 592.863 332.31 588.46 332.199C584.056 332.091 580.575 328.432 580.687 324.028C580.795 319.625 584.454 316.144 588.86 316.252C593.264 316.364 596.745 320.023 596.633 324.426Z" fill="#41294A"/>
<path d="M665.01 319.045C664.899 323.449 661.24 326.929 656.836 326.818C652.433 326.71 648.952 323.051 649.064 318.647C649.172 314.244 652.831 310.763 657.237 310.871C661.641 310.982 665.122 314.641 665.01 319.045Z" fill="#41294A"/>
<path d="M599.202 217.554C599.202 217.554 569.118 232.995 563.986 260.758C558.851 288.522 563.525 359.192 531.205 356.713C531.205 356.713 465.451 218.196 599.202 217.554Z" fill="#41294A"/>
<path d="M615.256 217.774C612.542 219.816 646.679 218.922 666.759 242.12C686.842 265.318 692.881 324.343 695.926 325.367C698.971 326.395 709.257 251.735 687.329 229.899C665.4 208.066 630.7 206.151 615.256 217.774Z" fill="#41294A"/>
<path d="M688.725 330.584C688.725 330.584 696.103 298.964 710.542 309.813C724.98 320.663 712.938 353.807 698.998 357.119C685.062 360.432 681.372 346.966 688.725 330.584Z" fill="#FFCEB0"/>
<path d="M554.746 328.746C554.746 328.746 548.236 296.935 533.505 307.384C518.777 317.833 529.906 351.299 543.747 354.993C557.591 358.683 561.647 345.326 554.746 328.746Z" fill="#FFCEB0"/>
<path d="M653.183 290.911C653.183 290.911 668.195 282.991 677.444 294.369C685.58 304.372 667.011 296.265 660.177 297.56C653.339 298.859 644.31 298.292 653.183 290.911Z" fill="#41294A"/>
<path d="M593.527 293.793C593.527 293.793 578.13 286.65 569.473 298.483C561.859 308.89 579.989 299.845 586.883 300.793C593.775 301.738 602.767 300.71 593.527 293.793Z" fill="#41294A"/>
<path d="M647.732 375.18C647.732 375.18 637.939 360.382 627.344 361.314C616.745 362.249 608.622 375.889 607.197 376.462C607.197 376.462 623.736 384.229 647.732 375.18Z" fill="#41294A"/>
<path d="M588.172 306.667C574.914 306.667 563.979 317.46 563.794 330.721C563.708 337.231 566.158 343.391 570.702 348.062C575.245 352.729 581.332 355.348 587.845 355.437L588.185 355.44C601.443 355.44 612.379 344.651 612.56 331.389C612.745 317.947 601.959 306.858 588.513 306.671L588.172 306.667ZM588.185 358.622L587.8 358.619C580.438 358.52 573.556 355.555 568.42 350.279C563.285 345.001 560.514 338.039 560.612 330.677C560.819 315.684 573.183 303.486 588.172 303.486L588.557 303.489C603.757 303.699 615.949 316.235 615.742 331.431C615.539 346.423 603.174 358.622 588.185 358.622Z" fill="#FFFCF6"/>
<path d="M657.038 301.156C643.777 301.156 632.841 311.948 632.66 325.209C632.475 338.649 643.264 349.741 656.707 349.925L657.048 349.928C670.309 349.928 681.245 339.139 681.426 325.878C681.515 319.365 679.062 313.205 674.522 308.534C669.978 303.87 663.891 301.248 657.378 301.159L657.038 301.156ZM657.048 353.11L656.666 353.107C641.463 352.897 629.271 340.361 629.478 325.165C629.685 310.173 642.046 297.974 657.038 297.974L657.423 297.977C664.786 298.076 671.668 301.041 676.8 306.316C681.938 311.595 684.71 318.556 684.608 325.919C684.401 340.911 672.037 353.11 657.048 353.11Z" fill="#FFFCF6"/>
<path d="M562.887 326.727C562.705 326.727 562.517 326.695 562.339 326.631L552.135 322.883C551.311 322.578 550.888 321.665 551.191 320.838C551.493 320.017 552.412 319.6 553.233 319.896L563.434 323.641C564.261 323.946 564.681 324.859 564.379 325.687C564.143 326.329 563.536 326.727 562.887 326.727Z" fill="#FFFCF6"/>
<path d="M681.873 319.496C681.196 319.496 680.566 319.061 680.356 318.38C680.092 317.543 680.559 316.649 681.399 316.385L695.345 312.032C696.178 311.765 697.076 312.239 697.337 313.076C697.601 313.916 697.133 314.807 696.293 315.071L682.347 319.426C682.192 319.474 682.029 319.496 681.873 319.496Z" fill="#FFFCF6"/>
<path d="M614.759 246.942C614.759 246.942 614.788 278.673 633.69 284.404C652.59 290.137 701.21 287.608 700.717 279.854C696.265 209.846 663.357 213.368 635.873 204.408C587.673 188.7 548.251 267.4 554.153 286.001C560.055 304.598 600.737 287.232 609.445 284.617C618.151 281.998 613.327 260.436 614.759 246.942Z" fill="#000C3E"/>
<g opacity="0.210007">
<g opacity="0.210007">
<path opacity="0.210007" d="M566.015 354.112C566.015 354.112 608.895 329.37 627.715 332.829C646.535 336.291 679.565 336.832 681.06 343.583C682.559 350.332 639.185 347.29 625.844 348.588C612.503 349.886 561.287 365.244 566.015 354.112Z" fill="#DB5C5D"/>
</g>
</g>
<path d="M590.013 337.556C589.386 337.556 588.791 337.183 588.539 336.563C588.209 335.752 588.6 334.823 589.414 334.492C593.726 332.735 594.524 331.351 594.531 331.339C594.814 330.505 595.686 330.117 596.526 330.413C597.356 330.696 597.773 331.663 597.49 332.497C597.289 333.082 596.204 335.163 590.611 337.438C590.413 337.518 590.213 337.556 590.013 337.556Z" fill="#DB5C5D"/>
<path d="M655.524 334.188C654.242 334.188 652.078 333.8 648.68 332.142C647.888 331.76 647.56 330.809 647.945 330.016C648.327 329.227 649.284 328.903 650.07 329.285C654.261 331.324 655.82 330.984 655.839 330.984C656.65 330.643 657.516 331.041 657.859 331.849C658.203 332.657 657.764 333.612 656.952 333.959C656.742 334.048 656.291 334.188 655.524 334.188Z" fill="#DB5C5D"/>
<path d="M614.128 331.541C613.323 331.541 612.629 330.933 612.546 330.112C612.457 329.237 613.094 328.454 613.969 328.368L631.042 326.625C631.898 326.517 632.696 327.169 632.785 328.044C632.875 328.919 632.238 329.702 631.363 329.788L614.29 331.531C614.236 331.537 614.182 331.541 614.128 331.541Z" fill="#FFFCF6"/>
<path d="M590.487 191.565C590.255 191.565 590.016 191.515 589.794 191.403C580.767 187.016 575.307 180.757 573.557 172.8C569.676 155.131 585.46 135.583 586.135 134.759C586.695 134.078 587.694 133.979 588.371 134.536C589.052 135.093 589.154 136.092 588.597 136.773C588.441 136.964 573.112 155.968 576.666 172.125C578.196 179.08 583.08 184.604 591.184 188.546C591.973 188.928 592.304 189.882 591.919 190.671C591.645 191.235 591.079 191.565 590.487 191.565Z" fill="#000C3E"/>
<path d="M626.817 196.294C626.375 196.294 625.936 196.109 625.621 195.753C625.041 195.091 625.105 194.089 625.767 193.507C625.951 193.344 644.196 177.121 643.343 160.598C642.977 153.487 639.067 147.235 631.72 142.014C631.004 141.508 630.835 140.515 631.345 139.796C631.854 139.083 632.846 138.915 633.562 139.424C641.742 145.233 646.105 152.306 646.521 160.445C647.444 178.508 628.665 195.196 627.864 195.899C627.561 196.163 627.189 196.294 626.817 196.294Z" fill="#000C3E"/>
<path d="M721.447 405.181C720.986 405.181 720.528 404.983 720.213 404.592C719.659 403.914 719.761 402.912 720.442 402.355C720.652 402.184 741.578 384.706 735.517 357.057C733.181 346.398 729.087 334.67 724.75 322.255C717.231 300.724 709.455 278.459 708.822 256.874C708.797 255.992 709.49 255.264 710.368 255.235C711.192 255.264 711.978 255.9 712.004 256.778C712.624 277.873 720.315 299.904 727.753 321.205C732.122 333.716 736.249 345.53 738.625 356.373C745.113 385.979 722.679 404.64 722.449 404.824C722.154 405.063 721.8 405.181 721.447 405.181Z" fill="#000C3E"/>
<path d="M727.098 291.551C727.047 291.551 726.993 291.548 726.939 291.545C726.067 291.459 725.428 290.679 725.513 289.804C728.262 261.967 722.405 239.374 708.109 222.641C685.09 195.708 647.691 193.236 647.319 193.213C646.441 193.162 645.77 192.412 645.824 191.53C645.871 190.655 646.626 189.962 647.501 190.038C647.892 190.06 686.639 192.618 710.527 220.573C725.408 237.99 731.517 261.388 728.679 290.116C728.6 290.94 727.906 291.551 727.098 291.551Z" fill="#000C3E"/>
<path d="M613.154 378.321C613.154 378.321 629.008 367.197 643.167 376.733C643.167 376.733 626.635 382.928 613.154 378.321Z" fill="#DB5C5D"/>
<path d="M623.644 389.741C622.079 389.741 620.733 389.725 619.903 389.712C619.025 389.699 618.325 388.977 618.337 388.096C618.35 387.217 618.951 386.505 619.954 386.53C625.961 386.61 633.139 386.463 634.256 386.04C635.073 385.728 635.996 386.136 636.311 386.953C636.626 387.774 636.225 388.687 635.407 389.006C633.816 389.623 627.911 389.741 623.644 389.741Z" fill="#DB5C5D"/>
<path d="M546.48 346.203C546.337 346.203 546.194 346.184 546.051 346.143C545.204 345.907 544.711 345.032 544.946 344.183C549.299 328.583 537.743 318.538 537.625 318.436C536.957 317.87 536.874 316.865 537.444 316.193C538.01 315.525 539.016 315.442 539.687 316.015C540.228 316.473 552.907 327.498 548.01 345.042C547.813 345.742 547.177 346.203 546.48 346.203Z" fill="#DB5C5D"/>
<path d="M694.92 350.003C694.885 350.003 694.853 350.003 694.815 350C693.94 349.943 693.275 349.185 693.329 348.31C694.519 329.847 703.367 319.977 703.746 319.567C704.338 318.917 705.343 318.873 705.989 319.465C706.638 320.057 706.683 321.062 706.094 321.711C706.008 321.806 697.618 331.234 696.508 348.514C696.45 349.357 695.75 350.003 694.92 350.003Z" fill="#DB5C5D"/>
<path d="M662.972 401.941C662.972 401.941 668.031 458.534 661.318 467.485C654.604 476.438 612.084 469.721 600.893 467.485C589.703 465.248 589.681 371.648 591.94 377.97C610.623 430.185 661.684 383.977 662.972 401.941Z" fill="#FFCEB0"/>
<path d="M595.986 407.539C595.986 407.539 626.152 422.038 660.445 404.487C660.445 404.487 663.111 425.57 660.445 430.431C657.782 435.293 603.46 438.767 592.766 414.806C592.766 414.806 592.9 406.498 595.986 407.539Z" fill="#F5A473"/>
<path d="M431.249 850.876H821.622C821.622 850.876 841.562 511.474 792.662 474.566C743.759 437.655 528.486 456.093 477.804 487.621C427.122 519.149 431.249 850.876 431.249 850.876Z" fill="#FB4C47"/>
<path d="M626.153 460.778C626.153 460.778 611.106 591.241 617.674 609.399C624.237 627.558 615.828 708.065 613.155 718.53C610.48 728.994 529.374 733.439 508.445 725.068C487.515 716.697 513.777 491.045 525.492 449.298C537.211 407.547 624.864 432.145 626.153 460.778Z" fill="#05BA6E"/>
<path d="M387.969 300.932C387.969 300.932 420.598 363.425 443.465 364.004C466.335 364.583 543.454 270.668 571.889 269.7C600.328 268.736 624.747 271.495 624.859 264.718C624.97 257.937 585.307 250.537 585.307 250.537C585.307 250.537 642.667 254.189 630.802 247.915C618.941 241.641 590.515 235.999 590.515 235.999C590.515 235.999 631.741 237.663 632.04 233.254C632.339 228.844 589.118 222.35 589.118 222.35C589.118 222.35 641.712 220.67 632.094 213.435C622.472 206.199 604.365 209.34 555.389 216.82C506.409 224.3 395.602 289.688 387.969 300.932Z" fill="#FFCEB0"/>
<path d="M445.214 297.938C445.214 297.938 497.41 329.03 474.683 364.265C450.483 401.784 451.838 390.638 447.654 405.818C443.467 420.998 512.441 450.563 515.578 463.557C518.715 476.548 486.201 636.332 455.745 629.774C429.235 624.069 281.915 540.466 260.743 456.92C244.332 392.15 378.102 233.722 445.214 297.938Z" fill="#FB4C47"/>
<path d="M581.845 662.398C581.845 662.398 524.011 789.801 545.274 806.862C566.538 823.919 583.672 812.805 602.476 823.878C621.283 834.95 639.323 829.414 654.43 819.78C669.537 810.142 630.22 683.391 613.958 671.323C597.697 659.252 584.776 655.777 581.845 662.398Z" fill="white"/>
<path d="M774.001 465.5C774.001 465.5 805.099 469.296 829.51 514C847.824 547.541 883.304 743.529 829.51 771.454C775.716 799.377 725.261 784.771 705.736 765.953C686.209 747.135 720.95 650.154 744.108 642.915C767.268 635.679 774.001 465.5 774.001 465.5Z" fill="#FB4C47"/>
<path d="M784.071 462.496C784.071 462.496 785.525 453.434 740.742 434.055C705.005 418.588 674.393 444.691 619.88 447.501C565.368 450.313 570.287 428.706 531.727 438.748C472.223 454.239 519.599 493.244 538.772 497.622C557.945 502 622.181 609.985 784.071 462.496Z" fill="#05BA6E"/>
<path d="M627.78 353.6C627.78 353.6 627.614 357.291 629.733 357.625C631.852 357.959 635.769 356.776 634.76 351.803C634.76 351.803 629.447 353.511 627.78 353.6Z" fill="white"/>
<path d="M848.514 659.318C848.365 659.318 848.212 659.309 848.059 659.287C846.589 659.077 845.501 657.893 845.345 656.483C842.695 653.419 824.899 647.002 813.028 642.719C789.509 634.234 778.962 630.037 776.693 625.446C774.768 621.554 775.63 615.942 776.722 608.837C778.449 597.593 780.603 583.593 773.463 570.109C761.134 546.822 762.308 512.281 762.366 510.824C762.436 509.067 763.953 507.661 765.665 507.766C767.421 507.833 768.79 509.312 768.726 511.065C768.71 511.409 767.565 545.371 779.089 567.131C787.212 582.479 784.784 598.27 783.012 609.801C782.162 615.321 781.364 620.536 782.398 622.627C784.326 625.601 802.898 632.302 815.186 636.734C842.879 646.725 852.495 650.744 851.658 656.588C851.432 658.176 850.07 659.318 848.514 659.318Z" fill="#B31B1F"/>
<path d="M765.5 633.159C765.223 633.159 764.943 633.124 764.66 633.047C754.148 630.18 737.816 627.196 737.654 627.164C735.923 626.852 734.777 625.195 735.092 623.467C735.407 621.736 737.059 620.572 738.793 620.906C739.47 621.027 755.554 623.967 766.334 626.906C768.03 627.371 769.029 629.118 768.567 630.814C768.182 632.23 766.9 633.159 765.5 633.159Z" fill="#B31B1F"/>
<path d="M822.653 790.54C822.603 790.54 822.555 790.54 822.507 790.536C763.613 787.867 704.936 762.779 701.763 738.916C700.768 731.417 700.048 727.665 699.603 725.81C698.413 725.219 697.691 723.952 697.904 722.568C698.308 719.947 700.083 719.017 701.493 719.017H701.528C704.732 719.052 705.795 720.93 708.073 738.079C710.535 756.603 763.957 781.513 822.793 784.179C824.55 784.259 825.908 785.745 825.829 787.501C825.752 789.21 824.343 790.54 822.653 790.54Z" fill="#B31B1F"/>
<path d="M717.077 734.226C716.845 734.226 716.609 734.2 716.371 734.149C714.659 733.761 713.584 732.056 713.972 730.341C714.109 729.727 728.025 668.383 741.032 624.256C741.529 622.569 743.31 621.602 744.984 622.105C746.67 622.601 747.634 624.37 747.135 626.056C734.185 669.987 720.316 731.133 720.179 731.747C719.842 733.224 718.531 734.226 717.077 734.226Z" fill="#B31B1F"/>
<path d="M441 600.994C440.845 600.994 440.682 600.982 440.523 600.959C438.786 600.699 437.59 599.076 437.851 597.342C438.178 595.146 446.034 543.3 456.814 519.039C467.294 495.463 472.659 471.558 472.713 471.32C473.088 469.605 474.784 468.532 476.509 468.902C478.224 469.283 479.305 470.986 478.924 472.701C478.704 473.7 473.365 497.467 462.63 521.626C452.2 545.098 444.22 597.755 444.141 598.284C443.905 599.865 442.547 600.994 441 600.994Z" fill="#B31B1F"/>
<path d="M392.497 419.977C384.028 419.977 374.536 419.462 364.088 418.132C362.344 417.909 361.11 416.318 361.332 414.575C361.552 412.831 363.184 411.619 364.889 411.819C396.707 415.873 419.31 412.141 430.961 409.598C425.158 407.743 417.028 405.936 408.915 406.378C390.658 407.237 363.944 390.928 362.815 390.228C361.32 389.305 360.858 387.345 361.781 385.85C362.704 384.354 364.667 383.887 366.159 384.816C366.42 384.975 392.351 400.817 408.587 400.021C424.054 399.207 442.371 406.095 444.035 409.051C444.63 410.104 444.582 411.472 443.905 412.475C443.275 413.4 441.97 413.957 440.825 413.887C440.322 413.945 438.833 414.301 437.385 414.645C430.427 416.312 415.091 419.974 392.497 419.977Z" fill="#B31B1F"/>
<path d="M470.708 351.594C469.525 351.594 468.389 350.932 467.842 349.799C467.762 349.637 459.817 333.499 446.289 327.104C430.93 319.84 413.561 294.523 412.829 293.451C411.84 291.997 412.215 290.015 413.666 289.028C415.123 288.042 417.099 288.421 418.086 289.865C418.257 290.113 435.213 314.823 449.012 321.348C464.603 328.727 473.212 346.287 473.572 347.028C474.335 348.613 473.671 350.509 472.089 351.273C471.644 351.492 471.173 351.594 470.708 351.594Z" fill="#B31B1F"/>
<path d="M618.497 536.501C618.379 536.501 618.259 536.488 618.141 536.46C617.285 536.265 616.747 535.41 616.944 534.557C617.021 534.22 624.609 501.047 626.83 484.196C630.289 457.925 618.523 448.761 618.405 448.672C617.702 448.144 617.555 447.151 618.077 446.448C618.599 445.742 619.585 445.592 620.292 446.111C620.842 446.515 633.709 456.318 629.983 484.61C627.746 501.613 620.123 534.932 620.047 535.263C619.878 536.005 619.223 536.501 618.497 536.501Z" fill="#08824F"/>
<path d="M524.663 488.657L521.503 488.291C521.503 488.291 523.972 466.811 525.261 456.251C526.562 445.599 529.601 438.325 529.731 438.02C530.072 437.205 531.007 436.836 531.815 437.17C532.623 437.514 533.002 438.449 532.662 439.257C532.63 439.327 529.661 446.454 528.42 456.639C527.132 467.19 524.663 488.654 524.663 488.657Z" fill="#08824F"/>
<path d="M615.008 841.386C596.863 841.386 586.885 840.787 573.076 839.96C555.312 838.894 530.988 837.437 474.143 836.553C472.387 836.527 470.984 835.083 471.012 833.323C471.041 831.567 472.587 830.103 474.242 830.189C531.227 831.074 555.634 832.54 573.455 833.609C587.155 834.427 597.05 835.022 615.008 835.022C637.487 835.022 657.653 832.559 677.157 830.18C694.278 828.086 710.447 826.113 727.778 825.728C764.747 824.914 792.374 825.725 792.647 825.728C794.404 825.786 795.785 827.252 795.731 829.005C795.676 830.762 794.194 832.063 792.457 832.092C792.183 832.082 764.712 831.268 727.921 832.092C710.906 832.467 694.886 834.424 677.927 836.495C658.235 838.901 637.875 841.386 615.008 841.386Z" fill="#B31B1F"/>
<path d="M759.143 798.932C757.562 798.932 755.978 798.223 754.597 796.136C750.298 789.642 749 789.107 740.689 790.386C733.171 791.56 730.202 786.231 728.236 782.709C727.581 781.531 726.957 780.421 726.413 779.991C724.949 778.837 721.293 780.224 719.747 781.076L718.204 778.296C718.879 777.92 724.873 774.723 728.386 777.494C729.426 778.318 730.161 779.635 731.014 781.156C732.913 784.551 734.879 788.048 740.202 787.243C749.716 785.773 752.258 786.845 757.25 794.379C758.574 796.384 759.719 796.11 763.248 794.052C765.927 792.48 769.99 790.109 773.019 794.341L770.435 796.193C769.255 794.554 768.186 794.85 764.851 796.797C763.257 797.73 761.202 798.932 759.143 798.932Z" fill="white"/>
<path d="M722.124 649.085C722.124 649.085 646.125 621.604 613.153 635.661C580.181 649.715 553.009 685.948 558.042 688.344C563.076 690.743 590.012 669.852 590.012 669.852C590.012 669.852 562.544 697.609 567.638 700.387C572.732 703.164 599.201 688.344 599.201 688.344C599.201 688.344 580.725 708.096 588.66 709.607C596.595 711.119 613.608 694.844 631.349 694.233C649.094 693.619 671.455 707.641 693.638 711.59C715.818 715.535 722.124 649.085 722.124 649.085Z" fill="#FFCEB0"/>
<path d="M836.818 634.84C836.621 634.84 836.423 634.821 836.223 634.783C836 634.744 813.62 630.513 786.865 625.072C785.143 624.722 784.03 623.042 784.38 621.321C784.727 619.599 786.403 618.486 788.131 618.839C814.842 624.267 837.184 628.489 837.407 628.534C839.134 628.858 840.267 630.522 839.939 632.25C839.653 633.777 838.317 634.84 836.818 634.84Z" fill="#B31B1F"/>
<path fill-rule="evenodd" clip-rule="evenodd" d="M624.41 134.769C623.579 134.769 622.676 134.866 621.697 135.059C619.312 135.538 617.767 136.697 616.839 138.708C612.702 147.662 621.424 168.986 627.656 181.585C631.507 167.609 636.122 144.248 629.601 136.886C628.345 135.471 626.636 134.769 624.41 134.769ZM627.839 192.049C627.939 192.068 628.04 192.082 628.142 192.09C628.474 192.218 628.828 192.284 629.186 192.284C629.517 192.284 629.849 192.229 630.172 192.111C634.422 190.562 671.844 176.527 676.505 160.355C677.626 156.467 676.837 152.632 674.225 149.273C669.782 143.553 664.982 142.873 661.735 143.305C652.524 144.534 643.457 156.434 636.808 167.74C639.16 154.863 640.066 139.992 633.922 133.056C631.755 130.608 627.673 127.983 620.568 129.398C616.398 130.23 613.294 132.615 611.598 136.29C605.32 149.887 619.762 179.169 624.575 188.244C618.506 189.415 612.402 189.679 606.563 189.283C593.984 188.428 582.834 184.516 576.177 180.237L573.798 183.938C581.164 188.673 593.052 192.775 606.265 193.673C613.194 194.143 620.543 193.737 627.839 192.049ZM663.327 148.971C663.054 148.971 662.777 148.987 662.5 149.029C652.744 150.327 640.957 171.018 634.725 184.107C647.68 178.652 668.228 168.233 670.957 158.759C671.571 156.626 671.159 154.741 669.668 152.817C667.661 150.235 665.582 148.971 663.327 148.971Z" fill="#FFD310"/>
<path d="M201.27 243.75H314.515C321.784 243.75 328.662 247.045 333.218 252.71L366.458 294.048C371.173 299.91 378.363 303.223 385.883 302.997L598.85 296.596" stroke="#FFB2B1" stroke-width="5" stroke-linejoin="round"/>
<path d="M213.361 244.265C213.361 249.301 209.279 253.384 204.243 253.384C199.207 253.384 195.124 249.301 195.124 244.265C195.124 239.229 199.207 235.147 204.243 235.147C209.279 235.147 213.361 239.229 213.361 244.265Z" fill="#FF383D"/>
<path d="M15.0007 244.366C15.0007 205.356 46.625 173.732 85.6348 173.732C124.645 173.732 156.266 205.356 156.266 244.366C156.266 283.376 124.645 315 85.6348 315C46.625 315 15.0007 283.376 15.0007 244.366Z" fill="#FFE1E2"/>
<path d="M85.3303 156.49C134.103 156.49 173.64 196.028 173.64 244.8C173.64 293.573 134.103 333.113 85.3303 333.113V376.724" stroke="#FFD6D7" stroke-width="2.4" stroke-miterlimit="10"/>
<path d="M78.0679 378.928C78.0679 374.916 81.3185 371.665 85.3301 371.665C89.3418 371.665 92.5924 374.916 92.5924 378.928C92.5924 382.939 89.3418 386.19 85.3301 386.19C81.3185 386.19 78.0679 382.939 78.0679 378.928Z" fill="#F2AEB0"/>
<path d="M57.158 242.248V245.997H62.572V248.232H57.158V254H54.5798V239.896H63.6033V242.248H57.158ZM68.3943 242.248V245.772H74.1843V248.017H68.3943V251.648H74.8396V254H65.8162V239.896H74.8396V242.248H68.3943ZM79.072 239.896L81.113 245.116C81.421 245.94 81.7898 246.971 82.2195 248.21C82.6563 249.442 82.9607 250.323 83.1326 250.853C83.3259 250.323 83.6375 249.435 84.0671 248.189C84.504 246.942 84.8764 245.911 85.1843 245.095L87.2039 239.896H89.9539L84.4753 254H81.822L76.2683 239.896H79.072ZM94.3259 242.248V245.772H100.116V248.017H94.3259V251.648H100.771V254H91.7478V239.896H100.771V242.248H94.3259ZM103.5 239.896H109.096C110.815 239.896 112.119 240.279 113.007 241.045C113.902 241.804 114.349 242.889 114.349 244.3C114.349 245.281 114.12 246.119 113.662 246.814C113.211 247.501 112.573 247.999 111.75 248.307L114.435 254H111.556L109.182 248.747H106.078V254H103.5V239.896ZM109.096 246.502C109.934 246.502 110.568 246.301 110.998 245.9C111.427 245.492 111.642 244.966 111.642 244.321C111.642 243.677 111.424 243.158 110.987 242.764C110.557 242.363 109.927 242.162 109.096 242.162H106.078V246.502H109.096Z" fill="#FF383D"/>
<path d="M654.77 358.046H823.584C832.398 358.046 840.503 362.877 844.695 370.63L875.944 428.419C880.136 436.172 888.241 441.004 897.055 441.004H979.84" stroke="#FFB2B1" stroke-width="5" stroke-linejoin="round"/>
<path d="M983.944 440.905C983.944 445.941 979.862 450.023 974.826 450.023C969.79 450.023 965.708 445.941 965.708 440.905C965.708 435.868 969.79 431.786 974.826 431.786C979.862 431.786 983.944 435.868 983.944 440.905Z" fill="#FF383D"/>
<path opacity="0.15" d="M1009.73 459.366C1009.73 420.356 1041.36 388.732 1080.37 388.732C1119.38 388.732 1151 420.356 1151 459.366C1151 498.376 1119.38 530 1080.37 530C1041.36 530 1009.73 498.376 1009.73 459.366Z" fill="#FF383D"/>
<path d="M1046.72 439.896H1052.32C1054.04 439.896 1055.34 440.279 1056.23 441.045C1057.12 441.804 1057.57 442.889 1057.57 444.3C1057.57 445.281 1057.34 446.119 1056.88 446.814C1056.43 447.501 1055.79 447.999 1054.97 448.307L1057.66 454H1054.78L1052.4 448.747H1049.3V454H1046.72V439.896ZM1052.32 446.502C1053.15 446.502 1053.79 446.301 1054.22 445.9C1054.65 445.492 1054.86 444.966 1054.86 444.321C1054.86 443.677 1054.64 443.158 1054.21 442.764C1053.78 442.363 1053.15 442.162 1052.32 442.162H1049.3V446.502H1052.32ZM1059.93 439.896H1062.51V448.812C1062.51 449.9 1062.82 450.691 1063.43 451.186C1064.05 451.68 1064.83 451.927 1065.79 451.927C1066.8 451.927 1067.6 451.665 1068.19 451.143C1068.79 450.613 1069.09 449.836 1069.09 448.812V439.896H1071.66V448.919C1071.66 450.079 1071.41 451.064 1070.9 451.873C1070.39 452.675 1069.69 453.28 1068.81 453.689C1067.92 454.09 1066.92 454.29 1065.79 454.29C1064.64 454.29 1063.63 454.086 1062.75 453.678C1061.87 453.262 1061.18 452.654 1060.67 451.852C1060.18 451.042 1059.93 450.065 1059.93 448.919V439.896ZM1086.18 439.896V454H1083.76L1077.27 444.343V454H1074.71V439.896H1077.14L1083.63 449.574V439.896H1086.18ZM1100.81 439.896V454H1098.39L1091.9 444.343V454H1089.34V439.896H1091.77L1098.26 449.574V439.896H1100.81ZM1105.59 439.896L1107.26 442.753C1107.67 443.469 1108.03 444.132 1108.35 444.74C1108.66 445.342 1108.86 445.721 1108.93 445.879C1109.01 445.714 1109.21 445.356 1109.51 444.805C1109.82 444.246 1110.2 443.562 1110.65 442.753L1112.32 439.896H1115.2L1110.21 448.35V454H1107.63V448.35L1102.61 439.896H1105.59ZM1065.75 468.896V483H1063.34L1056.85 473.343V483H1054.29V468.896H1056.72L1063.21 478.574V468.896H1065.75ZM1083.01 475.942C1083.01 477.36 1082.68 478.628 1082.04 479.745C1081.4 480.862 1080.5 481.732 1079.37 482.356C1078.23 482.979 1076.96 483.29 1075.55 483.29C1074.14 483.29 1072.87 482.982 1071.74 482.366C1070.61 481.75 1069.73 480.884 1069.1 479.767C1068.46 478.649 1068.14 477.382 1068.14 475.964C1068.14 474.539 1068.46 473.271 1069.1 472.161C1069.73 471.044 1070.61 470.174 1071.74 469.551C1072.87 468.928 1074.15 468.616 1075.57 468.616C1076.98 468.616 1078.25 468.928 1079.38 469.551C1080.51 470.174 1081.4 471.04 1082.04 472.15C1082.68 473.253 1083.01 474.517 1083.01 475.942ZM1080.28 475.942C1080.28 474.983 1080.08 474.131 1079.68 473.386C1079.28 472.641 1078.71 472.061 1077.99 471.646C1077.27 471.223 1076.47 471.012 1075.57 471.012C1074.66 471.012 1073.85 471.223 1073.12 471.646C1072.41 472.061 1071.85 472.641 1071.44 473.386C1071.03 474.131 1070.83 474.99 1070.83 475.964C1070.83 476.916 1071.03 477.769 1071.44 478.521C1071.85 479.265 1072.41 479.845 1073.12 480.261C1073.85 480.676 1074.66 480.884 1075.57 480.884C1076.47 480.884 1077.27 480.676 1077.99 480.261C1078.71 479.845 1079.28 479.265 1079.68 478.521C1080.08 477.769 1080.28 476.909 1080.28 475.942ZM1084.85 472.902C1084.85 472.036 1085.06 471.28 1085.48 470.636C1085.9 469.991 1086.49 469.494 1087.25 469.143C1088.02 468.792 1088.9 468.616 1089.89 468.616C1090.87 468.616 1091.75 468.788 1092.51 469.132C1093.28 469.476 1093.88 469.963 1094.31 470.593C1094.74 471.223 1094.95 471.957 1094.95 472.795H1092.3C1092.28 472.193 1092.04 471.71 1091.58 471.345C1091.12 470.972 1090.52 470.786 1089.76 470.786C1089.08 470.786 1088.52 470.958 1088.11 471.302C1087.7 471.638 1087.5 472.075 1087.5 472.612C1087.5 473.142 1087.68 473.533 1088.03 473.783C1088.4 474.034 1088.88 474.231 1089.48 474.374L1091.79 474.943C1092.85 475.194 1093.7 475.656 1094.35 476.329C1095 476.995 1095.33 477.855 1095.33 478.907C1095.33 479.788 1095.11 480.558 1094.66 481.217C1094.23 481.876 1093.6 482.388 1092.79 482.753C1091.99 483.111 1091.06 483.29 1089.99 483.29C1088.41 483.29 1087.12 482.907 1086.12 482.141C1085.13 481.367 1084.6 480.318 1084.51 478.993H1087.16C1087.19 479.652 1087.47 480.171 1087.99 480.551C1088.51 480.923 1089.19 481.109 1090.03 481.109C1090.84 481.109 1091.48 480.938 1091.93 480.594C1092.39 480.25 1092.62 479.777 1092.62 479.176C1092.62 478.66 1092.46 478.27 1092.14 478.005C1091.82 477.74 1091.39 477.543 1090.87 477.414L1088.51 476.845C1087.35 476.565 1086.45 476.1 1085.81 475.448C1085.17 474.789 1084.85 473.941 1084.85 472.902ZM1100.25 471.248V474.772H1106.04V477.017H1100.25V480.648H1106.69V483H1097.67V468.896H1106.69V471.248H1100.25Z" fill="#FF383D"/>
<path d="M1085.03 371.265C1133.8 371.265 1173.34 410.803 1173.34 459.578C1173.34 508.35 1133.8 547.888 1085.03 547.888V591.502" stroke="#FFD6D7" stroke-width="2.4" stroke-miterlimit="10"/>
<path d="M1077.77 593.704C1077.77 589.692 1081.02 586.442 1085.03 586.442C1089.04 586.442 1092.29 589.692 1092.29 593.704C1092.29 597.716 1089.04 600.966 1085.03 600.966C1081.02 600.966 1077.77 597.716 1077.77 593.704Z" fill="#F2AEB0"/>
<path opacity="0.15" d="M15.0007 730.366C15.0007 691.356 46.625 659.732 85.6348 659.732C124.645 659.732 156.266 691.356 156.266 730.366C156.266 769.376 124.645 801 85.6348 801C46.625 801 15.0007 769.376 15.0007 730.366Z" fill="#FF383D"/>
<g filter="url(#filter1_d)">
<path d="M35.822 726.896C37.197 726.896 38.4216 727.196 39.4958 727.798C40.5772 728.399 41.4187 729.241 42.0203 730.322C42.6218 731.397 42.9226 732.618 42.9226 733.985C42.9226 735.346 42.6254 736.56 42.031 737.627C41.4366 738.687 40.5987 739.514 39.5173 740.108C38.4431 740.703 37.2113 741 35.822 741H30.5798V726.896H35.822ZM35.5964 738.648C36.5203 738.648 37.3295 738.454 38.0242 738.067C38.726 737.674 39.2667 737.126 39.6462 736.424C40.0258 735.722 40.2156 734.909 40.2156 733.985C40.2156 733.047 40.0258 732.224 39.6462 731.515C39.2667 730.799 38.726 730.244 38.0242 729.85C37.3295 729.449 36.5203 729.248 35.5964 729.248H33.158V738.648H35.5964ZM45.9412 726.896L47.6169 729.753C48.0251 730.469 48.3868 731.132 48.7019 731.74C49.017 732.342 49.2104 732.721 49.282 732.879C49.3679 732.714 49.5613 732.356 49.8621 731.805C50.17 731.246 50.5496 730.562 51.0007 729.753L52.6765 726.896H55.5554L50.5603 735.35V741H47.9822V735.35L42.9656 726.896H45.9412ZM63.1394 726.896C64.6218 726.896 65.7856 727.315 66.6306 728.152C67.4828 728.99 67.9089 730.111 67.9089 731.515C67.9089 732.424 67.7156 733.23 67.3289 733.932C66.9421 734.626 66.3835 735.171 65.6531 735.565C64.9298 735.958 64.0776 736.155 63.0964 736.155H59.9275V741H57.3494V726.896H63.1394ZM62.613 733.942C63.4796 733.942 64.1277 733.71 64.5574 733.244C64.9942 732.772 65.2126 732.181 65.2126 731.472C65.2126 730.827 64.9942 730.283 64.5574 729.839C64.1277 729.388 63.5011 729.162 62.6775 729.162H59.9275V733.942H62.613ZM69.6277 730.902C69.6277 730.036 69.8354 729.28 70.2507 728.636C70.6733 727.991 71.2641 727.494 72.0232 727.143C72.7895 726.792 73.6703 726.616 74.6658 726.616C75.6469 726.616 76.5206 726.788 77.2869 727.132C78.0531 727.476 78.6511 727.963 79.0808 728.593C79.5105 729.223 79.7253 729.957 79.7253 730.795H77.072C77.0577 730.193 76.8178 729.71 76.3523 729.345C75.894 728.972 75.2888 728.786 74.5369 728.786C73.8494 728.786 73.2979 728.958 72.8826 729.302C72.4744 729.638 72.2703 730.075 72.2703 730.612C72.2703 731.142 72.4493 731.533 72.8074 731.783C73.1726 732.034 73.656 732.231 74.2576 732.374L76.5671 732.943C77.6199 733.194 78.4721 733.656 79.1238 734.329C79.7755 734.995 80.1013 735.855 80.1013 736.907C80.1013 737.788 79.8793 738.558 79.4353 739.217C78.9985 739.876 78.3754 740.388 77.5662 740.753C76.7641 741.111 75.8295 741.29 74.7625 741.29C73.1798 741.29 71.8907 740.907 70.8953 740.141C69.907 739.367 69.3699 738.318 69.2839 736.993H71.9373C71.9659 737.652 72.2416 738.171 72.7644 738.551C73.2872 738.923 73.9675 739.109 74.8054 739.109C75.6147 739.109 76.2485 738.938 76.7068 738.594C77.1651 738.25 77.3943 737.777 77.3943 737.176C77.3943 736.66 77.2332 736.27 76.9109 736.005C76.5886 735.74 76.1661 735.543 75.6433 735.414L73.28 734.845C72.1199 734.565 71.2211 734.1 70.5837 733.448C69.9464 732.789 69.6277 731.941 69.6277 730.902ZM93.905 726.896V741H91.488L84.9998 731.343V741H82.4431V726.896H84.8708L91.3591 736.574V726.896H93.905ZM111.157 733.942C111.157 735.36 110.835 736.628 110.19 737.745C109.546 738.862 108.654 739.732 107.515 740.356C106.384 740.979 105.113 741.29 103.702 741.29C102.291 741.29 101.02 740.982 99.8884 740.366C98.7641 739.75 97.8832 738.884 97.2458 737.767C96.6085 736.649 96.2898 735.382 96.2898 733.964C96.2898 732.539 96.6085 731.271 97.2458 730.161C97.8832 729.044 98.7641 728.174 99.8884 727.551C101.02 726.928 102.298 726.616 103.723 726.616C105.134 726.616 106.402 726.928 107.526 727.551C108.658 728.174 109.546 729.04 110.19 730.15C110.835 731.253 111.157 732.517 111.157 733.942ZM108.428 733.942C108.428 732.983 108.228 732.131 107.827 731.386C107.426 730.641 106.864 730.061 106.14 729.646C105.424 729.223 104.619 729.012 103.723 729.012C102.814 729.012 101.997 729.223 101.274 729.646C100.558 730.061 99.9958 730.641 99.5876 731.386C99.1794 732.131 98.9753 732.99 98.9753 733.964C98.9753 734.916 99.1794 735.769 99.5876 736.521C99.9958 737.265 100.558 737.845 101.274 738.261C101.997 738.676 102.814 738.884 103.723 738.884C104.619 738.884 105.424 738.676 106.14 738.261C106.864 737.845 107.426 737.265 107.827 736.521C108.228 735.769 108.428 734.909 108.428 733.942ZM116.109 729.248V732.772H121.899V735.017H116.109V738.648H122.554V741H113.531V726.896H122.554V729.248H116.109ZM129.161 726.896H131.782L137.013 741H134.285L133.146 737.788H127.754L126.561 741H123.897L129.161 726.896ZM132.394 735.65L131.492 733.169C131.406 732.933 131.17 732.234 130.783 731.074L130.482 730.193C130.425 730.387 130.289 730.791 130.074 731.407C129.859 732.023 129.641 732.61 129.419 733.169L128.495 735.65H132.394Z" fill="#FF383D"/>
</g>
<path d="M85.3325 642.642C134.105 642.642 173.643 682.18 173.643 730.952C173.643 779.727 134.105 819.265 85.3325 819.265V862.876" stroke="#FFD6D7" stroke-width="2.4" stroke-miterlimit="10"/>
<path d="M78.0701 865.08C78.0701 861.068 81.3207 857.818 85.3323 857.818C89.344 857.818 92.5946 861.068 92.5946 865.08C92.5946 869.089 89.344 872.342 85.3323 872.342C81.3207 872.342 78.0701 869.089 78.0701 865.08Z" fill="#F2AEB0"/>
<path d="M190.74 742.834H369.033C378.666 742.834 387.365 737.075 391.127 728.207L447.54 595.233C451.302 586.365 460.002 580.606 469.634 580.606H676.809" stroke="#FFB2B1" stroke-width="5" stroke-linejoin="round"/>
<path d="M205.987 743.241C205.987 748.277 201.904 752.359 196.868 752.359C191.832 752.359 187.75 748.277 187.75 743.241C187.75 738.205 191.832 734.122 196.868 734.122C201.904 734.122 205.987 738.205 205.987 743.241Z" fill="#FF383D"/>
<path opacity="0.15" d="M163.268 488.366C163.268 449.356 131.644 417.732 92.6338 417.732C53.624 417.732 21.9998 449.356 21.9998 488.366C21.9998 527.376 53.624 559 92.6338 559C131.644 559 163.268 527.376 163.268 488.366Z" fill="#FF383D"/>
<path d="M62.2026 474.227H57.938V486H55.3599V474.227H51.0522V471.896H62.2026V474.227ZM64.1147 471.896H66.6929V477.75L72.9448 477.771V471.896H75.5337V486H72.9448V479.995H66.6929V486H64.1147V471.896ZM78.5737 471.896H84.1704C85.8892 471.896 87.1925 472.279 88.0806 473.045C88.9757 473.804 89.4233 474.889 89.4233 476.3C89.4233 477.281 89.1942 478.119 88.7358 478.813C88.2847 479.501 87.6473 479.999 86.8237 480.307L89.5093 486H86.6304L84.2563 480.747H81.1519V486H78.5737V471.896ZM84.1704 478.502C85.0083 478.502 85.6421 478.301 86.0718 477.9C86.5015 477.492 86.7163 476.966 86.7163 476.321C86.7163 475.677 86.4979 475.158 86.061 474.764C85.6313 474.363 85.0011 474.162 84.1704 474.162H81.1519V478.502H84.1704ZM105.87 478.942C105.87 480.36 105.547 481.628 104.903 482.745C104.258 483.862 103.367 484.732 102.228 485.355C101.097 485.979 99.8254 486.29 98.4146 486.29C97.0037 486.29 95.7326 485.982 94.6011 485.366C93.4767 484.75 92.5959 483.884 91.9585 482.767C91.3211 481.649 91.0024 480.382 91.0024 478.964C91.0024 477.539 91.3211 476.271 91.9585 475.161C92.5959 474.044 93.4767 473.174 94.6011 472.551C95.7326 471.928 97.0109 471.616 98.436 471.616C99.8468 471.616 101.114 471.928 102.239 472.551C103.37 473.174 104.258 474.04 104.903 475.15C105.547 476.253 105.87 477.517 105.87 478.942ZM103.141 478.942C103.141 477.983 102.941 477.131 102.54 476.386C102.139 475.641 101.576 475.061 100.853 474.646C100.137 474.223 99.3312 474.012 98.436 474.012C97.5265 474.012 96.7101 474.223 95.9868 474.646C95.2707 475.061 94.7085 475.641 94.3003 476.386C93.8921 477.131 93.688 477.99 93.688 478.964C93.688 479.916 93.8921 480.769 94.3003 481.521C94.7085 482.265 95.2707 482.845 95.9868 483.261C96.7101 483.676 97.5265 483.884 98.436 483.884C99.3312 483.884 100.137 483.676 100.853 483.261C101.576 482.845 102.139 482.265 102.54 481.521C102.941 480.769 103.141 479.909 103.141 478.942ZM111.456 471.896H114.077L119.308 486H116.58L115.441 482.788H110.048L108.856 486H106.192L111.456 471.896ZM114.689 480.65L113.787 478.169C113.701 477.933 113.464 477.234 113.078 476.074L112.777 475.193C112.72 475.387 112.583 475.791 112.369 476.407C112.154 477.023 111.935 477.61 111.713 478.169L110.79 480.65H114.689ZM129.707 474.227H125.442V486H122.864V474.227H118.556V471.896H129.707V474.227ZM77.6821 500.896C79.1646 500.896 80.3283 501.314 81.1733 502.152C82.0256 502.99 82.4517 504.111 82.4517 505.515C82.4517 506.424 82.2583 507.23 81.8716 507.932C81.4849 508.626 80.9263 509.171 80.1958 509.564C79.4725 509.958 78.6203 510.155 77.6392 510.155H74.4702V515H71.8921V500.896H77.6821ZM77.1558 507.942C78.0223 507.942 78.6704 507.71 79.1001 507.244C79.5369 506.771 79.7554 506.181 79.7554 505.472C79.7554 504.827 79.5369 504.283 79.1001 503.839C78.6704 503.388 78.0438 503.162 77.2202 503.162H74.4702V507.942H77.1558ZM87.3716 500.896H89.9927L95.2241 515H92.4956L91.3569 511.788H85.9644L84.772 515H82.1079L87.3716 500.896ZM90.605 509.65L89.7026 507.169C89.6167 506.933 89.3804 506.234 88.9937 505.074L88.6929 504.193C88.6356 504.387 88.4995 504.791 88.2847 505.407C88.0698 506.023 87.8514 506.61 87.6294 507.169L86.7056 509.65H90.605ZM97.0288 515V500.896H99.6069V515H97.0288ZM114.098 500.896V515H111.681L105.193 505.343V515H102.636V500.896H105.064L111.552 510.574V500.896H114.098Z" fill="#FF383D"/>
<path d="M93.9726 400.026C45.2003 400.026 5.6626 439.563 5.6626 488.338C5.6626 537.111 45.2003 576.648 93.9726 576.648V620.262" stroke="#FFD6D7" stroke-width="2.4" stroke-miterlimit="10"/>
<path d="M101.433 622.545C101.433 618.533 98.1821 615.283 94.1705 615.283C90.1615 615.283 86.9082 618.533 86.9082 622.545C86.9082 626.556 90.1615 629.807 94.1705 629.807C98.1821 629.807 101.433 626.556 101.433 622.545Z" fill="#F2AEB0"/>
<path d="M194.511 503.07H397.822C405.243 503.07 412.246 499.638 416.792 493.772L459.528 438.629C464.074 432.763 471.077 429.331 478.498 429.331H635.721" stroke="#FFB2B1" stroke-width="5" stroke-linejoin="round"/>
<path d="M204.761 503.586C204.761 508.622 200.678 512.704 195.642 512.704C190.606 512.704 186.524 508.622 186.524 503.586C186.524 498.55 190.606 494.468 195.642 494.468C200.678 494.468 204.761 498.55 204.761 503.586Z" fill="#FF383D"/>
<path opacity="0.13" d="M1164 700.366C1164 661.356 1132.38 629.732 1093.37 629.732C1054.36 629.732 1022.74 661.356 1022.74 700.366C1022.74 739.376 1054.36 771 1093.37 771C1132.38 771 1164 739.376 1164 700.366Z" fill="#FF383D"/>
<path d="M1049.72 683.902C1049.72 683.036 1049.92 682.28 1050.34 681.636C1050.76 680.991 1051.35 680.493 1052.11 680.143C1052.88 679.792 1053.76 679.616 1054.75 679.616C1055.74 679.616 1056.61 679.788 1057.38 680.132C1058.14 680.476 1058.74 680.963 1059.17 681.593C1059.6 682.223 1059.81 682.957 1059.81 683.795H1057.16C1057.15 683.193 1056.91 682.71 1056.44 682.345C1055.98 681.972 1055.38 681.786 1054.63 681.786C1053.94 681.786 1053.39 681.958 1052.97 682.302C1052.56 682.638 1052.36 683.075 1052.36 683.612C1052.36 684.142 1052.54 684.532 1052.9 684.783C1053.26 685.034 1053.74 685.231 1054.35 685.374L1056.66 685.943C1057.71 686.194 1058.56 686.656 1059.21 687.329C1059.86 687.995 1060.19 688.854 1060.19 689.907C1060.19 690.788 1059.97 691.558 1059.52 692.217C1059.09 692.876 1058.46 693.388 1057.65 693.753C1056.85 694.111 1055.92 694.29 1054.85 694.29C1053.27 694.29 1051.98 693.907 1050.98 693.141C1050 692.367 1049.46 691.318 1049.37 689.993H1052.03C1052.05 690.652 1052.33 691.171 1052.85 691.551C1053.38 691.923 1054.06 692.109 1054.89 692.109C1055.7 692.109 1056.34 691.937 1056.8 691.594C1057.25 691.25 1057.48 690.777 1057.48 690.176C1057.48 689.66 1057.32 689.27 1057 689.005C1056.68 688.74 1056.25 688.543 1055.73 688.414L1053.37 687.845C1052.21 687.565 1051.31 687.1 1050.67 686.448C1050.03 685.789 1049.72 684.941 1049.72 683.902ZM1062.53 679.895H1065.11V685.75L1071.36 685.771V679.895H1073.95V694H1071.36V687.995H1065.11V694H1062.53V679.895ZM1080.87 679.895H1083.49L1088.72 694H1085.99L1084.85 690.788H1079.46L1078.27 694H1075.6L1080.87 679.895ZM1084.1 688.65L1083.2 686.169C1083.11 685.933 1082.88 685.234 1082.49 684.074L1082.19 683.193C1082.13 683.387 1082 683.791 1081.78 684.407C1081.57 685.023 1081.35 685.61 1081.13 686.169L1080.2 688.65H1084.1ZM1097.22 685.965L1102.08 694H1098.98L1095.46 688.145L1093.13 691.035V694.043H1090.53V679.895H1093.13V687.071L1098.89 679.895H1102.11L1097.22 685.965ZM1103.95 694V679.895H1106.53V694H1103.95ZM1121.02 679.895V694H1118.61L1112.12 684.343V694H1109.56V679.895H1111.99L1118.48 689.574V679.895H1121.02ZM1137.62 686.341V687.684C1137.62 688.987 1137.32 690.14 1136.72 691.143C1136.12 692.138 1135.28 692.911 1134.2 693.463C1133.14 694.014 1131.92 694.29 1130.55 694.29C1129.13 694.29 1127.88 693.989 1126.8 693.388C1125.73 692.786 1124.89 691.941 1124.3 690.852C1123.7 689.757 1123.41 688.489 1123.41 687.05C1123.41 685.582 1123.71 684.289 1124.32 683.172C1124.93 682.047 1125.78 681.174 1126.88 680.551C1127.98 679.928 1129.24 679.616 1130.67 679.616C1131.82 679.616 1132.85 679.817 1133.78 680.218C1134.72 680.619 1135.5 681.185 1136.12 681.915C1136.73 682.638 1137.14 683.469 1137.33 684.407H1134.58C1134.3 683.648 1133.81 683.057 1133.1 682.635C1132.39 682.205 1131.55 681.99 1130.59 681.99C1129.2 681.99 1128.09 682.449 1127.29 683.365C1126.48 684.282 1126.07 685.496 1126.07 687.007C1126.07 688.518 1126.48 689.71 1127.3 690.584C1128.12 691.45 1129.23 691.884 1130.62 691.884C1131.78 691.884 1132.74 691.594 1133.49 691.014C1134.26 690.426 1134.72 689.603 1134.87 688.543H1130.4V686.341H1137.62ZM1066.97 723.29C1065.56 723.29 1064.3 722.986 1063.2 722.377C1062.1 721.768 1061.25 720.905 1060.63 719.788C1060.01 718.671 1059.71 717.389 1059.71 715.942C1059.71 714.503 1060.01 713.228 1060.62 712.118C1061.23 711.001 1062.08 710.138 1063.18 709.529C1064.28 708.921 1065.54 708.616 1066.97 708.616C1068.14 708.616 1069.22 708.817 1070.19 709.218C1071.16 709.619 1071.97 710.199 1072.61 710.958C1073.25 711.71 1073.65 712.584 1073.83 713.579H1070.96C1070.74 712.82 1070.27 712.2 1069.55 711.721C1068.82 711.234 1067.96 710.99 1066.95 710.99C1066.04 710.99 1065.24 711.194 1064.54 711.602C1063.85 712.011 1063.32 712.594 1062.95 713.353C1062.58 714.105 1062.39 714.976 1062.39 715.964C1062.39 716.959 1062.58 717.833 1062.96 718.585C1063.34 719.33 1063.87 719.899 1064.56 720.293C1065.26 720.687 1066.05 720.884 1066.95 720.884C1067.93 720.884 1068.78 720.647 1069.51 720.175C1070.25 719.695 1070.74 719.061 1070.96 718.273H1073.83C1073.67 719.254 1073.27 720.128 1072.64 720.894C1072.01 721.654 1071.21 722.244 1070.23 722.667C1069.26 723.082 1068.17 723.29 1066.97 723.29ZM1076.17 708.895H1078.75V714.75L1085 714.771V708.895H1087.59V723H1085V716.995H1078.75V723H1076.17V708.895ZM1090.63 723V708.895H1093.21V723H1090.63ZM1104.67 720.669V723H1096.24V708.895H1098.84V720.669H1104.67ZM1115.18 720.669V723H1106.75V708.895H1109.35V720.669H1115.18ZM1116.85 712.902C1116.85 712.036 1117.06 711.28 1117.48 710.636C1117.9 709.991 1118.49 709.493 1119.25 709.143C1120.02 708.792 1120.9 708.616 1121.89 708.616C1122.87 708.616 1123.75 708.788 1124.51 709.132C1125.28 709.476 1125.88 709.963 1126.31 710.593C1126.74 711.223 1126.95 711.957 1126.95 712.795H1124.3C1124.28 712.193 1124.05 711.71 1123.58 711.345C1123.12 710.972 1122.52 710.786 1121.76 710.786C1121.08 710.786 1120.53 710.958 1120.11 711.302C1119.7 711.638 1119.5 712.075 1119.5 712.612C1119.5 713.142 1119.68 713.532 1120.03 713.783C1120.4 714.034 1120.88 714.231 1121.48 714.374L1123.79 714.943C1124.85 715.194 1125.7 715.656 1126.35 716.329C1127 716.995 1127.33 717.854 1127.33 718.907C1127.33 719.788 1127.11 720.558 1126.66 721.217C1126.23 721.876 1125.6 722.388 1124.79 722.753C1123.99 723.111 1123.06 723.29 1121.99 723.29C1120.41 723.29 1119.12 722.907 1118.12 722.141C1117.13 721.367 1116.6 720.318 1116.51 718.993H1119.16C1119.19 719.652 1119.47 720.171 1119.99 720.551C1120.51 720.923 1121.19 721.109 1122.03 721.109C1122.84 721.109 1123.48 720.937 1123.93 720.594C1124.39 720.25 1124.62 719.777 1124.62 719.176C1124.62 718.66 1124.46 718.27 1124.14 718.005C1123.82 717.74 1123.39 717.543 1122.87 717.414L1120.51 716.845C1119.35 716.565 1118.45 716.1 1117.81 715.448C1117.17 714.789 1116.85 713.941 1116.85 712.902Z" fill="#FA5652"/>
<path d="M1093.87 613.801C1045.1 613.801 1005.56 653.339 1005.56 702.111C1005.56 750.886 1045.1 790.424 1093.87 790.424V834.035" stroke="#FFD6D7" stroke-width="2.4" stroke-miterlimit="10"/>
<path d="M1101.13 836.239C1101.13 832.227 1097.88 828.976 1093.86 828.976C1089.85 828.976 1086.6 832.227 1086.6 836.239C1086.6 840.248 1089.85 843.501 1093.86 843.501C1097.88 843.501 1101.13 840.248 1101.13 836.239Z" fill="#F2AEB0"/>
<path d="M729.738 754.401H820.846C828.124 754.401 835.009 751.098 839.565 745.421L865.096 713.605C869.651 707.929 876.536 704.626 883.814 704.626H977.995" stroke="#FFA6A6" stroke-width="5" stroke-linejoin="round"/>
<path d="M983.943 703.913C983.943 708.949 979.861 713.031 974.825 713.031C969.789 713.031 965.706 708.949 965.706 703.913C965.706 698.876 969.789 694.794 974.825 694.794C979.861 694.794 983.943 698.876 983.943 703.913Z" fill="#FF383D"/>
<path opacity="0.15" d="M1164 214.366C1164 175.356 1132.38 143.732 1093.37 143.732C1054.36 143.732 1022.74 175.356 1022.74 214.366C1022.74 253.376 1054.36 285 1093.37 285C1132.38 285 1164 253.376 1164 214.366Z" fill="#FF383D"/>
<path d="M1040.58 210.896H1043.16V216.75L1049.41 216.772V210.896H1052V225H1049.41V218.995H1043.16V225H1040.58V210.896ZM1057.62 213.248V216.772H1063.41V219.017H1057.62V222.648H1064.06V225H1055.04V210.896H1064.06V213.248H1057.62ZM1070.67 210.896H1073.29L1078.52 225H1075.79L1074.65 221.788H1069.26L1068.07 225H1065.41L1070.67 210.896ZM1073.9 219.65L1073 217.169C1072.91 216.933 1072.68 216.234 1072.29 215.074L1071.99 214.193C1071.93 214.387 1071.8 214.791 1071.58 215.407C1071.37 216.023 1071.15 216.61 1070.93 217.169L1070 219.65H1073.9ZM1085.57 210.896C1086.94 210.896 1088.17 211.196 1089.24 211.798C1090.32 212.399 1091.17 213.241 1091.77 214.322C1092.37 215.397 1092.67 216.618 1092.67 217.985C1092.67 219.346 1092.37 220.56 1091.78 221.627C1091.18 222.687 1090.35 223.514 1089.26 224.108C1088.19 224.703 1086.96 225 1085.57 225H1080.33V210.896H1085.57ZM1085.34 222.648C1086.27 222.648 1087.08 222.454 1087.77 222.067C1088.47 221.674 1089.01 221.126 1089.39 220.424C1089.77 219.722 1089.96 218.909 1089.96 217.985C1089.96 217.047 1089.77 216.224 1089.39 215.515C1089.01 214.799 1088.47 214.244 1087.77 213.85C1087.08 213.449 1086.27 213.248 1085.34 213.248H1082.9V222.648H1085.34ZM1098.26 210.896H1100.88L1106.11 225H1103.38L1102.24 221.788H1096.85L1095.66 225H1092.99L1098.26 210.896ZM1101.49 219.65L1100.59 217.169C1100.5 216.933 1100.26 216.234 1099.88 215.074L1099.58 214.193C1099.52 214.387 1099.38 214.791 1099.17 215.407C1098.95 216.023 1098.73 216.61 1098.51 217.169L1097.59 219.65H1101.49ZM1113.72 225.29C1112.31 225.29 1111.06 224.986 1109.95 224.377C1108.86 223.768 1108 222.905 1107.39 221.788C1106.77 220.671 1106.46 219.389 1106.46 217.942C1106.46 216.503 1106.77 215.228 1107.38 214.118C1107.98 213.001 1108.84 212.138 1109.93 211.529C1111.03 210.921 1112.3 210.616 1113.72 210.616C1114.9 210.616 1115.97 210.817 1116.95 211.218C1117.92 211.619 1118.73 212.199 1119.36 212.958C1120 213.71 1120.41 214.584 1120.59 215.579H1117.72C1117.5 214.82 1117.03 214.201 1116.3 213.721C1115.58 213.234 1114.71 212.99 1113.7 212.99C1112.79 212.99 1111.99 213.194 1111.3 213.603C1110.61 214.011 1110.08 214.594 1109.71 215.354C1109.33 216.106 1109.15 216.976 1109.15 217.964C1109.15 218.959 1109.34 219.833 1109.72 220.585C1110.1 221.33 1110.63 221.899 1111.32 222.293C1112.01 222.687 1112.81 222.884 1113.7 222.884C1114.68 222.884 1115.54 222.648 1116.27 222.175C1117.01 221.695 1117.49 221.061 1117.72 220.273H1120.59C1120.42 221.255 1120.03 222.128 1119.4 222.895C1118.77 223.654 1117.96 224.245 1116.99 224.667C1116.02 225.082 1114.93 225.29 1113.72 225.29ZM1122.93 210.896H1125.51V216.75L1131.76 216.772V210.896H1134.35V225H1131.76V218.995H1125.51V225H1122.93V210.896ZM1139.97 213.248V216.772H1145.76V219.017H1139.97V222.648H1146.41V225H1137.39V210.896H1146.41V213.248H1139.97Z" fill="#FF383D"/>
<path d="M1093.87 127.65C1045.1 127.65 1005.56 167.187 1005.56 215.96C1005.56 264.732 1045.1 304.272 1093.87 304.272V347.883" stroke="#FFD6D7" stroke-width="2.4" stroke-miterlimit="10"/>
<path d="M1101.13 350.087C1101.13 346.075 1097.88 342.825 1093.87 342.825C1089.86 342.825 1086.61 346.075 1086.61 350.087C1086.61 354.099 1089.86 357.349 1093.87 357.349C1097.88 357.349 1101.13 354.099 1101.13 350.087Z" fill="#F2AEB0"/>
<path d="M979.839 222.859H853.559C847.442 222.859 841.555 225.195 837.102 229.39L808.567 256.271C804.114 260.466 798.228 262.802 792.11 262.802H678.12" stroke="#FFB2B1" stroke-width="5" stroke-linejoin="round"/>
<path d="M983.941 222.146C983.941 227.182 979.859 231.264 974.822 231.264C969.786 231.264 965.704 227.182 965.704 222.146C965.704 217.11 969.786 213.027 974.822 213.027C979.859 213.027 983.941 217.11 983.941 222.146Z" fill="#FF383D"/>
</g>
<defs>
<filter id="filter0_d" x="0.0625" y="1.09888" width="1178.88" height="879.243" filterUnits="userSpaceOnUse" color-interpolation-filters="sRGB">
<feFlood flood-opacity="0" result="BackgroundImageFix"/>
<feColorMatrix in="SourceAlpha" type="matrix" values="0 0 0 0 0 0 0 0 0 0 0 0 0 0 0 0 0 0 127 0"/>
<feOffset dy="4"/>
<feGaussianBlur stdDeviation="2"/>
<feColorMatrix type="matrix" values="0 0 0 0 0 0 0 0 0 0 0 0 0 0 0 0 0 0 0.25 0"/>
<feBlend mode="normal" in2="BackgroundImageFix" result="effect1_dropShadow"/>
<feBlend mode="normal" in="SourceGraphic" in2="effect1_dropShadow" result="shape"/>
</filter>
<filter id="filter1_d" x="30.5798" y="726.616" width="106.434" height="14.6738" filterUnits="userSpaceOnUse" color-interpolation-filters="sRGB">
<feFlood flood-opacity="0" result="BackgroundImageFix"/>
<feColorMatrix in="SourceAlpha" type="matrix" values="0 0 0 0 0 0 0 0 0 0 0 0 0 0 0 0 0 0 127 0"/>
<feOffset/>
<feColorMatrix type="matrix" values="0 0 0 0 0 0 0 0 0 0 0 0 0 0 0 0 0 0 0.1 0"/>
<feBlend mode="normal" in2="BackgroundImageFix" result="effect1_dropShadow"/>
<feBlend mode="normal" in="SourceGraphic" in2="effect1_dropShadow" result="shape"/>
</filter>
<linearGradient id="paint0_linear" x1="283.615" y1="651.802" x2="347.866" y2="780.175" gradientUnits="userSpaceOnUse">
<stop stop-color="#FFC8C8"/>
<stop offset="1" stop-color="#FFF2F5"/>
</linearGradient>
<linearGradient id="paint1_linear" x1="915.18" y1="248.499" x2="393.511" y2="38.2372" gradientUnits="userSpaceOnUse">
<stop stop-color="white"/>
<stop offset="1" stop-color="#FFD5D5"/>
</linearGradient>
<linearGradient id="paint2_linear" x1="847.946" y1="153.536" x2="686.873" y2="126.967" gradientUnits="userSpaceOnUse">
<stop stop-color="#FFD3D3"/>
<stop offset="1" stop-color="#FFF6F6"/>
</linearGradient>
<linearGradient id="paint3_linear" x1="209.431" y1="428.025" x2="966.765" y2="428.025" gradientUnits="userSpaceOnUse">
<stop stop-color="#FFF8F5"/>
<stop offset="1" stop-color="#FFDEDE"/>
</linearGradient>
<linearGradient id="paint4_linear" x1="897.009" y1="609.534" x2="698.623" y2="627.818" gradientUnits="userSpaceOnUse">
<stop stop-color="#FFC2C2"/>
<stop offset="1" stop-color="white"/>
</linearGradient>
</defs>
</svg>
